<svg width="100" height="100" viewBox="0 0 100 100" fill="none" xmlns="http://www.w3.org/2000/svg">
<path d="M59.5155 100H13.0095C11.2615 100 9.97353 99.632 9.14553 98.896C8.40953 98.068 8.04153 96.78 8.04153 95.032V5.608C8.04153 3.86 8.40953 2.618 9.14553 1.882C9.97353 1.054 11.2615 0.639996 13.0095 0.639996H59.5155C71.0155 0.639996 79.5255 2.94 85.0455 7.54C90.6575 12.14 93.4635 19.224 93.4635 28.792V71.848C93.4635 81.416 90.6575 88.5 85.0455 93.1C79.5255 97.7 71.0155 100 59.5155 100ZM39.3675 26.998V73.918H55.7895C57.9975 73.918 59.6075 73.366 60.6195 72.262C61.7235 71.158 62.2755 69.456 62.2755 67.156V33.622C62.2755 31.322 61.7235 29.666 60.6195 28.654C59.6075 27.55 57.9975 26.998 55.7895 26.998H39.3675Z" fill="#32E0C4"/>
</svg>
